<mxfile host="app.diagrams.net" modified="2023-04-02T16:05:07.160Z" agent="Mozilla/5.0 (Windows NT 10.0; Win64; x64) AppleWebKit/537.36 (KHTML, like Gecko) Chrome/111.0.0.0 Safari/537.36 Edg/111.0.1661.62" etag="IzJycTcdDfMg5McGqKam" version="21.1.2" type="device">
  <diagram name="Страница 1" id="25V9_8wqBpbdxgsvuAAT">
    <mxGraphModel dx="792" dy="1138" grid="1" gridSize="10" guides="1" tooltips="1" connect="1" arrows="1" fold="1" page="1" pageScale="1" pageWidth="827" pageHeight="1169" math="0" shadow="0">
      <root>
        <mxCell id="0" />
        <mxCell id="1" parent="0" />
        <mxCell id="0jj6k2Os9TtCiJciOUAI-3" style="edgeStyle=orthogonalEdgeStyle;rounded=0;orthogonalLoop=1;jettySize=auto;html=1;" parent="1" source="0jj6k2Os9TtCiJciOUAI-1" edge="1">
          <mxGeometry relative="1" as="geometry">
            <mxPoint x="415" y="130" as="targetPoint" />
          </mxGeometry>
        </mxCell>
        <mxCell id="0jj6k2Os9TtCiJciOUAI-1" value="Начало&lt;br&gt;setTrain" style="ellipse;whiteSpace=wrap;html=1;" parent="1" vertex="1">
          <mxGeometry x="354" y="20" width="120" height="80" as="geometry" />
        </mxCell>
        <mxCell id="0jj6k2Os9TtCiJciOUAI-8" style="edgeStyle=orthogonalEdgeStyle;rounded=0;orthogonalLoop=1;jettySize=auto;html=1;entryX=0.5;entryY=0;entryDx=0;entryDy=0;" parent="1" source="0jj6k2Os9TtCiJciOUAI-5" target="0jj6k2Os9TtCiJciOUAI-7" edge="1">
          <mxGeometry relative="1" as="geometry" />
        </mxCell>
        <mxCell id="0jj6k2Os9TtCiJciOUAI-5" value="newTrain.from&lt;br&gt;newTrain.to&lt;br&gt;newTrain.number" style="shape=parallelogram;perimeter=parallelogramPerimeter;whiteSpace=wrap;html=1;fixedSize=1;" parent="1" vertex="1">
          <mxGeometry x="349" y="130" width="130" height="60" as="geometry" />
        </mxCell>
        <mxCell id="0jj6k2Os9TtCiJciOUAI-10" style="edgeStyle=orthogonalEdgeStyle;rounded=0;orthogonalLoop=1;jettySize=auto;html=1;" parent="1" source="0jj6k2Os9TtCiJciOUAI-7" target="0jj6k2Os9TtCiJciOUAI-9" edge="1">
          <mxGeometry relative="1" as="geometry" />
        </mxCell>
        <mxCell id="0jj6k2Os9TtCiJciOUAI-7" value="newTrain.time = setTime()" style="rounded=0;whiteSpace=wrap;html=1;" parent="1" vertex="1">
          <mxGeometry x="339" y="220" width="150" height="60" as="geometry" />
        </mxCell>
        <mxCell id="0jj6k2Os9TtCiJciOUAI-9" value="Конец" style="ellipse;whiteSpace=wrap;html=1;" parent="1" vertex="1">
          <mxGeometry x="354" y="300" width="120" height="80" as="geometry" />
        </mxCell>
      </root>
    </mxGraphModel>
  </diagram>
</mxfile>
